<svg xmlns="http://www.w3.org/2000/svg" viewBox="0 0 48 48" fill="none" role="img" aria-label="TouristSafety">
  <defs>
    <linearGradient id="ts-shield" x1="8" y1="4" x2="40" y2="44" gradientUnits="userSpaceOnUse">
      <stop stop-color="#0061FF"/>
      <stop offset="1" stop-color="#0EA5E9"/>
    </linearGradient>
    <linearGradient id="ts-shine" x1="14" y1="8" x2="28" y2="28" gradientUnits="userSpaceOnUse">
      <stop stop-color="#fff" stop-opacity="0.35"/>
      <stop offset="1" stop-color="#fff" stop-opacity="0"/>
    </linearGradient>
  </defs>
  <path
    d="M24 3.5 41 11.8v12.4c0 9.8-8.2 17.6-17 20.3-8.8-2.7-17-10.5-17-20.3V11.8L24 3.5Z"
    fill="url(#ts-shield)"
  />
  <path
    d="M24 3.5 41 11.8v12.4c0 9.8-8.2 17.6-17 20.3-8.8-2.7-17-10.5-17-20.3V11.8L24 3.5Z"
    fill="url(#ts-shine)"
  />
  <path
    d="M24 8.2 35.5 14v9.8c0 6.5-5.2 11.8-11.5 13.6C17.7 35.6 12.5 30.3 12.5 23.8V14L24 8.2Z"
    fill="#fff"
    fill-opacity="0.14"
  />
  <circle cx="24" cy="22" r="7.25" fill="#fff" fill-opacity="0.96"/>
  <path
    d="M24 14.8c-3.9 0-7.1 3.1-7.1 6.9 0 5.3 7.1 11.5 7.1 11.5s7.1-6.2 7.1-11.5c0-3.8-3.2-6.9-7.1-6.9Z"
    fill="#0061FF"
  />
  <circle cx="24" cy="21.5" r="2.35" fill="#fff"/>
</svg>
